<svg width="450" height="376" viewBox="0 0 450 376" fill="none" xmlns="http://www.w3.org/2000/svg">
<path d="M68.8795 331.97C68.8795 333.401 68.6106 334.481 68.0729 335.21C67.5397 335.935 66.7262 336.297 65.6324 336.297C64.5569 336.297 63.7457 335.944 63.1989 335.237C62.6565 334.526 62.3785 333.476 62.3649 332.086V330.363C62.3649 328.932 62.6315 327.859 63.1647 327.144C63.7024 326.428 64.5205 326.07 65.6188 326.07C66.708 326.07 67.5192 326.419 68.0524 327.116C68.5901 327.813 68.8658 328.857 68.8795 330.247V331.97ZM67.2184 330.11C67.2184 329.176 67.0908 328.493 66.8356 328.06C66.5804 327.622 66.1748 327.403 65.6188 327.403C65.0765 327.403 64.6777 327.611 64.4225 328.025C64.1673 328.436 64.0328 329.078 64.0192 329.953V332.209C64.0192 333.139 64.149 333.831 64.4088 334.287C64.6686 334.743 65.0765 334.971 65.6324 334.971C66.1656 334.971 66.5599 334.761 66.8151 334.342C67.0703 333.918 67.2047 333.257 67.2184 332.359V330.11Z" fill="black"/>
<path d="M48.9399 296.015H47.2856V288.024L44.8452 288.858V287.456L48.728 286.028H48.9399V296.015ZM58.8862 291.824C58.8862 293.255 58.6174 294.336 58.0796 295.065C57.5464 295.789 56.7329 296.152 55.6392 296.152C54.5636 296.152 53.7524 295.798 53.2056 295.092C52.6632 294.381 52.3853 293.331 52.3716 291.941V290.218C52.3716 288.787 52.6382 287.714 53.1714 286.998C53.7091 286.283 54.5272 285.925 55.6255 285.925C56.7147 285.925 57.5259 286.274 58.0591 286.971C58.5968 287.668 58.8726 288.712 58.8862 290.102V291.824ZM57.2251 289.965C57.2251 289.031 57.0975 288.347 56.8423 287.914C56.5871 287.477 56.1815 287.258 55.6255 287.258C55.0832 287.258 54.6844 287.465 54.4292 287.88C54.174 288.29 54.0396 288.933 54.0259 289.808V292.064C54.0259 292.993 54.1558 293.686 54.4155 294.142C54.6753 294.598 55.0832 294.825 55.6392 294.825C56.1724 294.825 56.5666 294.616 56.8218 294.197C57.077 293.773 57.2114 293.112 57.2251 292.214V289.965ZM66.8433 291.824C66.8433 293.255 66.5744 294.336 66.0366 295.065C65.5034 295.789 64.6899 296.152 63.5962 296.152C62.5207 296.152 61.7095 295.798 61.1626 295.092C60.6203 294.381 60.3423 293.331 60.3286 291.941V290.218C60.3286 288.787 60.5952 287.714 61.1284 286.998C61.6662 286.283 62.4842 285.925 63.5825 285.925C64.6717 285.925 65.4829 286.274 66.0161 286.971C66.5539 287.668 66.8296 288.712 66.8433 290.102V291.824ZM65.1821 289.965C65.1821 289.031 65.0545 288.347 64.7993 287.914C64.5441 287.477 64.1385 287.258 63.5825 287.258C63.0402 287.258 62.6414 287.465 62.3862 287.88C62.131 288.29 61.9966 288.933 61.9829 289.808V292.064C61.9829 292.993 62.1128 293.686 62.3726 294.142C62.6323 294.598 63.0402 294.825 63.5962 294.825C64.1294 294.825 64.5236 294.616 64.7788 294.197C65.034 293.773 65.1685 293.112 65.1821 292.214V289.965Z" fill="black"/>
<path d="M51.1343 255.87H44.4419V254.729L47.7573 251.112C48.2358 250.579 48.5754 250.135 48.7759 249.779C48.981 249.419 49.0835 249.059 49.0835 248.699C49.0835 248.225 48.9491 247.842 48.6802 247.551C48.4159 247.259 48.0581 247.113 47.6069 247.113C47.0692 247.113 46.6522 247.277 46.356 247.605C46.0597 247.934 45.9116 248.382 45.9116 248.952H44.2505C44.2505 248.346 44.3872 247.801 44.6606 247.318C44.9386 246.831 45.3328 246.452 45.8433 246.184C46.3582 245.915 46.9507 245.78 47.6206 245.78C48.5868 245.78 49.3478 246.024 49.9038 246.512C50.4644 246.995 50.7446 247.665 50.7446 248.521C50.7446 249.018 50.6034 249.54 50.3208 250.087C50.0428 250.629 49.5848 251.247 48.9468 251.939L46.5132 254.544H51.1343V255.87ZM58.8862 251.68C58.8862 253.111 58.6174 254.191 58.0796 254.92C57.5464 255.645 56.7329 256.007 55.6392 256.007C54.5636 256.007 53.7524 255.654 53.2056 254.947C52.6632 254.236 52.3853 253.186 52.3716 251.796V250.073C52.3716 248.642 52.6382 247.569 53.1714 246.854C53.7091 246.138 54.5272 245.78 55.6255 245.78C56.7147 245.78 57.5259 246.129 58.0591 246.826C58.5968 247.523 58.8726 248.567 58.8862 249.957V251.68ZM57.2251 249.82C57.2251 248.886 57.0975 248.202 56.8423 247.77C56.5871 247.332 56.1815 247.113 55.6255 247.113C55.0832 247.113 54.6844 247.321 54.4292 247.735C54.174 248.146 54.0396 248.788 54.0259 249.663V251.919C54.0259 252.849 54.1558 253.541 54.4155 253.997C54.6753 254.453 55.0832 254.681 55.6392 254.681C56.1724 254.681 56.5666 254.471 56.8218 254.052C57.077 253.628 57.2114 252.967 57.2251 252.069V249.82ZM66.8433 251.68C66.8433 253.111 66.5744 254.191 66.0366 254.92C65.5034 255.645 64.6899 256.007 63.5962 256.007C62.5207 256.007 61.7095 255.654 61.1626 254.947C60.6203 254.236 60.3423 253.186 60.3286 251.796V250.073C60.3286 248.642 60.5952 247.569 61.1284 246.854C61.6662 246.138 62.4842 245.78 63.5825 245.78C64.6717 245.78 65.4829 246.129 66.0161 246.826C66.5539 247.523 66.8296 248.567 66.8433 249.957V251.68ZM65.1821 249.82C65.1821 248.886 65.0545 248.202 64.7993 247.77C64.5441 247.332 64.1385 247.113 63.5825 247.113C63.0402 247.113 62.6414 247.321 62.3862 247.735C62.131 248.146 61.9966 248.788 61.9829 249.663V251.919C61.9829 252.849 62.1128 253.541 62.3726 253.997C62.6323 254.453 63.0402 254.681 63.5962 254.681C64.1294 254.681 64.5236 254.471 64.7788 254.052C65.034 253.628 65.1685 252.967 65.1821 252.069V249.82Z" fill="black"/>
<path d="M46.3628 209.99H47.3745C47.8849 209.985 48.2882 209.853 48.5845 209.593C48.8853 209.333 49.0356 208.958 49.0356 208.465C49.0356 207.991 48.9103 207.625 48.6597 207.365C48.4136 207.1 48.0353 206.968 47.5249 206.968C47.0783 206.968 46.7114 207.098 46.4243 207.358C46.1372 207.613 45.9937 207.948 45.9937 208.363H44.3325C44.3325 207.852 44.467 207.388 44.7358 206.968C45.0093 206.549 45.3875 206.223 45.8706 205.991C46.3582 205.754 46.9028 205.635 47.5044 205.635C48.4979 205.635 49.2772 205.886 49.8423 206.387C50.4119 206.884 50.6968 207.577 50.6968 208.465C50.6968 208.912 50.5532 209.333 50.2661 209.73C49.9836 210.122 49.6167 210.418 49.1655 210.619C49.7124 210.806 50.1271 211.099 50.4097 211.5C50.6968 211.902 50.8403 212.38 50.8403 212.936C50.8403 213.829 50.5327 214.54 49.9175 215.069C49.3068 215.597 48.5024 215.862 47.5044 215.862C46.5474 215.862 45.7635 215.607 45.1528 215.096C44.5422 214.586 44.2368 213.907 44.2368 213.059H45.8979C45.8979 213.497 46.0438 213.852 46.3354 214.125C46.6317 214.399 47.0282 214.536 47.5249 214.536C48.0399 214.536 48.4455 214.399 48.7417 214.125C49.0379 213.852 49.186 213.456 49.186 212.936C49.186 212.412 49.0311 212.009 48.7212 211.726C48.4113 211.444 47.951 211.302 47.3403 211.302H46.3628V209.99ZM58.8862 211.535C58.8862 212.966 58.6174 214.046 58.0796 214.775C57.5464 215.5 56.7329 215.862 55.6392 215.862C54.5636 215.862 53.7524 215.509 53.2056 214.802C52.6632 214.091 52.3853 213.041 52.3716 211.651V209.928C52.3716 208.497 52.6382 207.424 53.1714 206.708C53.7091 205.993 54.5272 205.635 55.6255 205.635C56.7147 205.635 57.5259 205.984 58.0591 206.681C58.5968 207.378 58.8726 208.422 58.8862 209.812V211.535ZM57.2251 209.675C57.2251 208.741 57.0975 208.057 56.8423 207.625C56.5871 207.187 56.1815 206.968 55.6255 206.968C55.0832 206.968 54.6844 207.176 54.4292 207.59C54.174 208 54.0396 208.643 54.0259 209.518V211.774C54.0259 212.704 54.1558 213.396 54.4155 213.852C54.6753 214.308 55.0832 214.536 55.6392 214.536C56.1724 214.536 56.5666 214.326 56.8218 213.907C57.077 213.483 57.2114 212.822 57.2251 211.924V209.675ZM66.8433 211.535C66.8433 212.966 66.5744 214.046 66.0366 214.775C65.5034 215.5 64.6899 215.862 63.5962 215.862C62.5207 215.862 61.7095 215.509 61.1626 214.802C60.6203 214.091 60.3423 213.041 60.3286 211.651V209.928C60.3286 208.497 60.5952 207.424 61.1284 206.708C61.6662 205.993 62.4842 205.635 63.5825 205.635C64.6717 205.635 65.4829 205.984 66.0161 206.681C66.5539 207.378 66.8296 208.422 66.8433 209.812V211.535ZM65.1821 209.675C65.1821 208.741 65.0545 208.057 64.7993 207.625C64.5441 207.187 64.1385 206.968 63.5825 206.968C63.0402 206.968 62.6414 207.176 62.3862 207.59C62.131 208 61.9966 208.643 61.9829 209.518V211.774C61.9829 212.704 62.1128 213.396 62.3726 213.852C62.6323 214.308 63.0402 214.536 63.5962 214.536C64.1294 214.536 64.5236 214.326 64.7788 213.907C65.034 213.483 65.1685 212.822 65.1821 211.924V209.675Z" fill="black"/>
<path d="M50.061 172.032H51.2983V173.365H50.061V175.58H48.3999V173.365H44.1001L44.0522 172.354L48.3452 165.627H50.061V172.032ZM45.7954 172.032H48.3999V167.876L48.2769 168.095L45.7954 172.032ZM58.8862 171.39C58.8862 172.821 58.6174 173.901 58.0796 174.63C57.5464 175.354 56.7329 175.717 55.6392 175.717C54.5636 175.717 53.7524 175.364 53.2056 174.657C52.6632 173.946 52.3853 172.896 52.3716 171.506V169.783C52.3716 168.352 52.6382 167.279 53.1714 166.563C53.7091 165.848 54.5272 165.49 55.6255 165.49C56.7147 165.49 57.5259 165.839 58.0591 166.536C58.5968 167.233 58.8726 168.277 58.8862 169.667V171.39ZM57.2251 169.53C57.2251 168.596 57.0975 167.912 56.8423 167.479C56.5871 167.042 56.1815 166.823 55.6255 166.823C55.0832 166.823 54.6844 167.031 54.4292 167.445C54.174 167.855 54.0396 168.498 54.0259 169.373V171.629C54.0259 172.559 54.1558 173.251 54.4155 173.707C54.6753 174.163 55.0832 174.391 55.6392 174.391C56.1724 174.391 56.5666 174.181 56.8218 173.762C57.077 173.338 57.2114 172.677 57.2251 171.779V169.53ZM66.8433 171.39C66.8433 172.821 66.5744 173.901 66.0366 174.63C65.5034 175.354 64.6899 175.717 63.5962 175.717C62.5207 175.717 61.7095 175.364 61.1626 174.657C60.6203 173.946 60.3423 172.896 60.3286 171.506V169.783C60.3286 168.352 60.5952 167.279 61.1284 166.563C61.6662 165.848 62.4842 165.49 63.5825 165.49C64.6717 165.49 65.4829 165.839 66.0161 166.536C66.5539 167.233 66.8296 168.277 66.8433 169.667V171.39ZM65.1821 169.53C65.1821 168.596 65.0545 167.912 64.7993 167.479C64.5441 167.042 64.1385 166.823 63.5825 166.823C63.0402 166.823 62.6414 167.031 62.3862 167.445C62.131 167.855 61.9966 168.498 61.9829 169.373V171.629C61.9829 172.559 62.1128 173.251 62.3726 173.707C62.6323 174.163 63.0402 174.391 63.5962 174.391C64.1294 174.391 64.5236 174.181 64.7788 173.762C65.034 173.338 65.1685 172.677 65.1821 171.779V169.53Z" fill="black"/>
<path d="M44.8862 130.5L45.4263 125.482H50.772V126.918H46.8071L46.5337 129.297C46.994 129.032 47.5135 128.9 48.0923 128.9C49.0402 128.9 49.7762 129.203 50.3003 129.809C50.8289 130.415 51.0933 131.231 51.0933 132.256C51.0933 133.268 50.8016 134.075 50.2183 134.676C49.6349 135.273 48.8351 135.572 47.8188 135.572C46.9074 135.572 46.1509 135.314 45.5493 134.799C44.9523 134.28 44.6287 133.596 44.5786 132.749H46.1851C46.2489 133.232 46.422 133.603 46.7046 133.863C46.9871 134.118 47.3563 134.246 47.812 134.246C48.3224 134.246 48.7189 134.063 49.0015 133.699C49.2886 133.334 49.4321 132.838 49.4321 132.209C49.4321 131.602 49.2749 131.124 48.9604 130.773C48.646 130.418 48.2131 130.24 47.6616 130.24C47.3608 130.24 47.1056 130.281 46.896 130.363C46.6864 130.44 46.4585 130.595 46.2124 130.828L44.8862 130.5ZM58.8862 131.245C58.8862 132.676 58.6174 133.756 58.0796 134.485C57.5464 135.21 56.7329 135.572 55.6392 135.572C54.5636 135.572 53.7524 135.219 53.2056 134.512C52.6632 133.801 52.3853 132.751 52.3716 131.361V129.638C52.3716 128.207 52.6382 127.134 53.1714 126.419C53.7091 125.703 54.5272 125.345 55.6255 125.345C56.7147 125.345 57.5259 125.694 58.0591 126.391C58.5968 127.089 58.8726 128.132 58.8862 129.522V131.245ZM57.2251 129.385C57.2251 128.451 57.0975 127.768 56.8423 127.335C56.5871 126.897 56.1815 126.678 55.6255 126.678C55.0832 126.678 54.6844 126.886 54.4292 127.3C54.174 127.711 54.0396 128.353 54.0259 129.228V131.484C54.0259 132.414 54.1558 133.106 54.4155 133.562C54.6753 134.018 55.0832 134.246 55.6392 134.246C56.1724 134.246 56.5666 134.036 56.8218 133.617C57.077 133.193 57.2114 132.532 57.2251 131.634V129.385ZM66.8433 131.245C66.8433 132.676 66.5744 133.756 66.0366 134.485C65.5034 135.21 64.6899 135.572 63.5962 135.572C62.5207 135.572 61.7095 135.219 61.1626 134.512C60.6203 133.801 60.3423 132.751 60.3286 131.361V129.638C60.3286 128.207 60.5952 127.134 61.1284 126.419C61.6662 125.703 62.4842 125.345 63.5825 125.345C64.6717 125.345 65.4829 125.694 66.0161 126.391C66.5539 127.089 66.8296 128.132 66.8433 129.522V131.245ZM65.1821 129.385C65.1821 128.451 65.0545 127.768 64.7993 127.335C64.5441 126.897 64.1385 126.678 63.5825 126.678C63.0402 126.678 62.6414 126.886 62.3862 127.3C62.131 127.711 61.9966 128.353 61.9829 129.228V131.484C61.9829 132.414 62.1128 133.106 62.3726 133.562C62.6323 134.018 63.0402 134.246 63.5962 134.246C64.1294 134.246 64.5236 134.036 64.7788 133.617C65.034 133.193 65.1685 132.532 65.1821 131.634V129.385Z" fill="black"/>
<path d="M49.6099 85.2892V86.6632H49.4048C48.4751 86.6769 47.7323 86.9321 47.1763 87.4288C46.6203 87.9256 46.2899 88.6297 46.1851 89.5411C46.7183 88.9806 47.3996 88.7003 48.229 88.7003C49.1086 88.7003 49.8013 89.0102 50.3071 89.63C50.8175 90.2498 51.0728 91.0496 51.0728 92.0294C51.0728 93.0411 50.7743 93.8615 50.1772 94.4904C49.5848 95.1147 48.8055 95.4269 47.8394 95.4269C46.8459 95.4269 46.0392 95.06 45.4194 94.3263C44.8042 93.5926 44.4966 92.631 44.4966 91.4415V90.8741C44.4966 89.1287 44.9204 87.7615 45.7681 86.7726C46.6203 85.7837 47.8439 85.2892 49.439 85.2892H49.6099ZM47.8257 90.0402C47.4611 90.0402 47.1261 90.1427 46.8208 90.3478C46.52 90.5529 46.299 90.8263 46.1577 91.1681V91.674C46.1577 92.4122 46.3127 93.0001 46.6226 93.4376C46.9325 93.8706 47.3335 94.087 47.8257 94.087C48.3179 94.087 48.7075 93.9025 48.9946 93.5333C49.2817 93.1642 49.4253 92.6788 49.4253 92.0773C49.4253 91.4757 49.2795 90.9858 48.9878 90.6075C48.6961 90.2293 48.3088 90.0402 47.8257 90.0402ZM58.8862 91.0997C58.8862 92.5307 58.6174 93.6108 58.0796 94.34C57.5464 95.0646 56.7329 95.4269 55.6392 95.4269C54.5636 95.4269 53.7524 95.0737 53.2056 94.3673C52.6632 93.6564 52.3853 92.6059 52.3716 91.2159V89.4933C52.3716 88.0623 52.6382 86.9891 53.1714 86.2736C53.7091 85.5581 54.5272 85.2003 55.6255 85.2003C56.7147 85.2003 57.5259 85.549 58.0591 86.2462C58.5968 86.9435 58.8726 87.9871 58.8862 89.3771V91.0997ZM57.2251 89.2404C57.2251 88.3061 57.0975 87.6225 56.8423 87.1896C56.5871 86.7521 56.1815 86.5333 55.6255 86.5333C55.0832 86.5333 54.6844 86.7407 54.4292 87.1554C54.174 87.5656 54.0396 88.2081 54.0259 89.0831V91.339C54.0259 92.2687 54.1558 92.9614 54.4155 93.4171C54.6753 93.8728 55.0832 94.1007 55.6392 94.1007C56.1724 94.1007 56.5666 93.8911 56.8218 93.4718C57.077 93.048 57.2114 92.3872 57.2251 91.4894V89.2404ZM66.8433 91.0997C66.8433 92.5307 66.5744 93.6108 66.0366 94.34C65.5034 95.0646 64.6899 95.4269 63.5962 95.4269C62.5207 95.4269 61.7095 95.0737 61.1626 94.3673C60.6203 93.6564 60.3423 92.6059 60.3286 91.2159V89.4933C60.3286 88.0623 60.5952 86.9891 61.1284 86.2736C61.6662 85.5581 62.4842 85.2003 63.5825 85.2003C64.6717 85.2003 65.4829 85.549 66.0161 86.2462C66.5539 86.9435 66.8296 87.9871 66.8433 89.3771V91.0997ZM65.1821 89.2404C65.1821 88.3061 65.0545 87.6225 64.7993 87.1896C64.5441 86.7521 64.1385 86.5333 63.5825 86.5333C63.0402 86.5333 62.6414 86.7407 62.3862 87.1554C62.131 87.5656 61.9966 88.2081 61.9829 89.0831V91.339C61.9829 92.2687 62.1128 92.9614 62.3726 93.4171C62.6323 93.8728 63.0402 94.1007 63.5962 94.1007C64.1294 94.1007 64.5236 93.8911 64.7788 93.4718C65.034 93.048 65.1685 92.3872 65.1821 91.4894V89.2404Z" fill="black"/>
<path d="M51.0659 46.115L47.0874 55.1453H45.3442L49.3159 46.5251H44.1685V45.1921H51.0659V46.115ZM58.8862 50.9548C58.8862 52.3858 58.6174 53.4659 58.0796 54.1951C57.5464 54.9197 56.7329 55.282 55.6392 55.282C54.5636 55.282 53.7524 54.9288 53.2056 54.2224C52.6632 53.5115 52.3853 52.461 52.3716 51.071V49.3484C52.3716 47.9174 52.6382 46.8442 53.1714 46.1287C53.7091 45.4132 54.5272 45.0554 55.6255 45.0554C56.7147 45.0554 57.5259 45.4041 58.0591 46.1013C58.5968 46.7986 58.8726 47.8422 58.8862 49.2322V50.9548ZM57.2251 49.0955C57.2251 48.1612 57.0975 47.4776 56.8423 47.0447C56.5871 46.6072 56.1815 46.3884 55.6255 46.3884C55.0832 46.3884 54.6844 46.5958 54.4292 47.0105C54.174 47.4207 54.0396 48.0632 54.0259 48.9382V51.1941C54.0259 52.1238 54.1558 52.8165 54.4155 53.2722C54.6753 53.7279 55.0832 53.9558 55.6392 53.9558C56.1724 53.9558 56.5666 53.7462 56.8218 53.3269C57.077 52.9031 57.2114 52.2423 57.2251 51.3445V49.0955ZM66.8433 50.9548C66.8433 52.3858 66.5744 53.4659 66.0366 54.1951C65.5034 54.9197 64.6899 55.282 63.5962 55.282C62.5207 55.282 61.7095 54.9288 61.1626 54.2224C60.6203 53.5115 60.3423 52.461 60.3286 51.071V49.3484C60.3286 47.9174 60.5952 46.8442 61.1284 46.1287C61.6662 45.4132 62.4842 45.0554 63.5825 45.0554C64.6717 45.0554 65.4829 45.4041 66.0161 46.1013C66.5539 46.7986 66.8296 47.8422 66.8433 49.2322V50.9548ZM65.1821 49.0955C65.1821 48.1612 65.0545 47.4776 64.7993 47.0447C64.5441 46.6072 64.1385 46.3884 63.5825 46.3884C63.0402 46.3884 62.6414 46.5958 62.3862 47.0105C62.131 47.4207 61.9966 48.0632 61.9829 48.9382V51.1941C61.9829 52.1238 62.1128 52.8165 62.3726 53.2722C62.6323 53.7279 63.0402 53.9558 63.5962 53.9558C64.1294 53.9558 64.5236 53.7462 64.7788 53.3269C65.034 52.9031 65.1685 52.2423 65.1821 51.3445V49.0955Z" fill="black"/>
<path d="M50.7104 7.67188C50.7104 8.15951 50.5851 8.59473 50.3345 8.97754C50.0838 9.35579 49.742 9.6543 49.3091 9.87305C49.8286 10.1146 50.2274 10.445 50.5054 10.8643C50.7879 11.2835 50.9292 11.7575 50.9292 12.2861C50.9292 13.1611 50.633 13.8561 50.0405 14.3711C49.4481 14.8815 48.6597 15.1367 47.6753 15.1367C46.6864 15.1367 45.8934 14.8792 45.2964 14.3643C44.7039 13.8493 44.4077 13.1566 44.4077 12.2861C44.4077 11.7529 44.549 11.2744 44.8315 10.8506C45.1141 10.4268 45.5106 10.1009 46.021 9.87305C45.5926 9.6543 45.2531 9.35579 45.0024 8.97754C44.7563 8.59473 44.6333 8.15951 44.6333 7.67188C44.6333 6.82422 44.9067 6.15202 45.4536 5.65527C46.0005 5.15853 46.7388 4.91016 47.6685 4.91016C48.6027 4.91016 49.3433 5.15853 49.8901 5.65527C50.437 6.15202 50.7104 6.82422 50.7104 7.67188ZM49.2681 12.2041C49.2681 11.7119 49.12 11.3154 48.8237 11.0146C48.5321 10.7093 48.1447 10.5566 47.6616 10.5566C47.1785 10.5566 46.7912 10.707 46.4995 11.0078C46.2124 11.3086 46.0688 11.7074 46.0688 12.2041C46.0688 12.6917 46.2101 13.0814 46.4927 13.373C46.7798 13.6647 47.174 13.8105 47.6753 13.8105C48.1766 13.8105 48.5662 13.6693 48.8442 13.3867C49.1268 13.1042 49.2681 12.71 49.2681 12.2041ZM49.0562 7.7334C49.0562 7.30046 48.9308 6.94499 48.6802 6.66699C48.4295 6.38444 48.0923 6.24316 47.6685 6.24316C47.2446 6.24316 46.9097 6.3776 46.6636 6.64648C46.4175 6.91081 46.2944 7.27311 46.2944 7.7334C46.2944 8.18913 46.4175 8.55143 46.6636 8.82031C46.9142 9.08919 47.2515 9.22363 47.6753 9.22363C48.0991 9.22363 48.4341 9.08919 48.6802 8.82031C48.9308 8.55143 49.0562 8.18913 49.0562 7.7334ZM58.8862 10.8096C58.8862 12.2406 58.6174 13.3206 58.0796 14.0498C57.5464 14.7744 56.7329 15.1367 55.6392 15.1367C54.5636 15.1367 53.7524 14.7835 53.2056 14.0771C52.6632 13.3662 52.3853 12.3158 52.3716 10.9258V9.20312C52.3716 7.77214 52.6382 6.69889 53.1714 5.9834C53.7091 5.2679 54.5272 4.91016 55.6255 4.91016C56.7147 4.91016 57.5259 5.25879 58.0591 5.95605C58.5968 6.65332 58.8726 7.69694 58.8862 9.08691V10.8096ZM57.2251 8.9502C57.2251 8.01595 57.0975 7.33236 56.8423 6.89941C56.5871 6.46191 56.1815 6.24316 55.6255 6.24316C55.0832 6.24316 54.6844 6.45052 54.4292 6.86523C54.174 7.27539 54.0396 7.91797 54.0259 8.79297V11.0488C54.0259 11.9785 54.1558 12.6712 54.4155 13.127C54.6753 13.5827 55.0832 13.8105 55.6392 13.8105C56.1724 13.8105 56.5666 13.6009 56.8218 13.1816C57.077 12.7578 57.2114 12.097 57.2251 11.1992V8.9502ZM66.8433 10.8096C66.8433 12.2406 66.5744 13.3206 66.0366 14.0498C65.5034 14.7744 64.6899 15.1367 63.5962 15.1367C62.5207 15.1367 61.7095 14.7835 61.1626 14.0771C60.6203 13.3662 60.3423 12.3158 60.3286 10.9258V9.20312C60.3286 7.77214 60.5952 6.69889 61.1284 5.9834C61.6662 5.2679 62.4842 4.91016 63.5825 4.91016C64.6717 4.91016 65.4829 5.25879 66.0161 5.95605C66.5539 6.65332 66.8296 7.69694 66.8433 9.08691V10.8096ZM65.1821 8.9502C65.1821 8.01595 65.0545 7.33236 64.7993 6.89941C64.5441 6.46191 64.1385 6.24316 63.5825 6.24316C63.0402 6.24316 62.6414 6.45052 62.3862 6.86523C62.131 7.27539 61.9966 7.91797 61.9829 8.79297V11.0488C61.9829 11.9785 62.1128 12.6712 62.3726 13.127C62.6323 13.5827 63.0402 13.8105 63.5962 13.8105C64.1294 13.8105 64.5236 13.6009 64.7788 13.1816C65.034 12.7578 65.1685 12.097 65.1821 11.1992V8.9502Z" fill="black"/>
<path d="M76.4573 330.792H449.699" stroke="black" stroke-width="2" stroke-miterlimit="10"/>
<path d="M76.4573 330.792V322.765" stroke="black" stroke-width="2" stroke-miterlimit="10"/>
<path d="M76.4573 330.792V9.63586" stroke="black" stroke-width="2" stroke-miterlimit="10"/>
<path d="M76.4573 330.792H85.787" stroke="black" stroke-width="2" stroke-miterlimit="10"/>
<path d="M76.4573 290.647H85.787" stroke="black" stroke-width="2" stroke-miterlimit="10"/>
<path d="M76.4573 250.503H85.787" stroke="black" stroke-width="2" stroke-miterlimit="10"/>
<path d="M76.4573 210.358H85.787" stroke="black" stroke-width="2" stroke-miterlimit="10"/>
<path d="M76.4573 170.214H85.787" stroke="black" stroke-width="2" stroke-miterlimit="10"/>
<path d="M76.4573 130.069H85.787" stroke="black" stroke-width="2" stroke-miterlimit="10"/>
<path d="M76.4573 89.9249H85.787" stroke="black" stroke-width="2" stroke-miterlimit="10"/>
<path d="M76.4573 49.7804H85.787" stroke="black" stroke-width="2" stroke-miterlimit="10"/>
<path d="M76.4573 9.63586H85.787" stroke="black" stroke-width="2" stroke-miterlimit="10"/>
<g opacity="0.9">
<path d="M414.242 270.575H335.86V330.792H414.242V270.575Z" fill="#FFDBCD"/>
</g>
<path d="M302.265 244.077H223.884V330.792H302.265V244.077Z" fill="#E45E2C"/>
<path d="M190.296 69.0453H111.914V330.792H190.296V69.0453Z" fill="#FFDBCD"/>
<path d="M131.012 357V347.047H133.951C134.831 347.047 135.61 347.243 136.289 347.635C136.973 348.027 137.501 348.583 137.875 349.303C138.249 350.023 138.436 350.848 138.436 351.777V352.276C138.436 353.22 138.246 354.049 137.868 354.765C137.494 355.48 136.959 356.032 136.262 356.419C135.569 356.806 134.774 357 133.876 357H131.012ZM132.741 348.441V355.619H133.869C134.776 355.619 135.471 355.337 135.954 354.771C136.442 354.202 136.69 353.386 136.699 352.324V351.771C136.699 350.69 136.465 349.866 135.995 349.296C135.526 348.726 134.844 348.441 133.951 348.441H132.741ZM143.87 351.121C143.651 351.085 143.426 351.066 143.193 351.066C142.432 351.066 141.92 351.358 141.655 351.941V357H139.994V349.604H141.58L141.621 350.431C142.022 349.788 142.578 349.467 143.289 349.467C143.526 349.467 143.722 349.499 143.877 349.562L143.87 351.121ZM149.4 356.275C148.913 356.85 148.22 357.137 147.322 357.137C146.52 357.137 145.912 356.902 145.497 356.433C145.087 355.963 144.882 355.284 144.882 354.396V349.604H146.543V354.375C146.543 355.314 146.933 355.783 147.712 355.783C148.519 355.783 149.063 355.494 149.346 354.915V349.604H151.007V357H149.441L149.4 356.275ZM152.408 353.247C152.408 352.099 152.677 351.183 153.215 350.499C153.757 349.811 154.475 349.467 155.368 349.467C156.211 349.467 156.874 349.761 157.357 350.349L157.433 349.604H158.93V356.774C158.93 357.745 158.627 358.511 158.021 359.071C157.419 359.632 156.605 359.912 155.58 359.912C155.038 359.912 154.507 359.798 153.987 359.57C153.472 359.347 153.08 359.053 152.812 358.688L153.598 357.69C154.108 358.297 154.737 358.6 155.484 358.6C156.036 358.6 156.471 358.449 156.79 358.148C157.109 357.852 157.269 357.415 157.269 356.836V356.337C156.79 356.87 156.152 357.137 155.354 357.137C154.489 357.137 153.78 356.793 153.229 356.104C152.682 355.416 152.408 354.464 152.408 353.247ZM154.062 353.391C154.062 354.133 154.213 354.719 154.514 355.147C154.819 355.571 155.241 355.783 155.778 355.783C156.448 355.783 156.945 355.496 157.269 354.922V351.668C156.954 351.107 156.462 350.827 155.792 350.827C155.245 350.827 154.819 351.044 154.514 351.477C154.213 351.91 154.062 352.548 154.062 353.391ZM164.788 354.99C164.788 354.694 164.665 354.468 164.419 354.313C164.177 354.159 163.774 354.022 163.209 353.903C162.644 353.785 162.172 353.634 161.794 353.452C160.965 353.051 160.55 352.47 160.55 351.709C160.55 351.071 160.819 350.538 161.356 350.109C161.894 349.681 162.578 349.467 163.407 349.467C164.291 349.467 165.005 349.686 165.547 350.123C166.094 350.561 166.367 351.128 166.367 351.825H164.706C164.706 351.506 164.588 351.242 164.351 351.032C164.114 350.818 163.799 350.711 163.407 350.711C163.043 350.711 162.744 350.795 162.512 350.964C162.284 351.132 162.17 351.358 162.17 351.641C162.17 351.896 162.277 352.094 162.491 352.235C162.705 352.377 163.138 352.52 163.79 352.666C164.442 352.807 164.952 352.978 165.321 353.179C165.695 353.375 165.971 353.612 166.148 353.89C166.331 354.168 166.422 354.505 166.422 354.901C166.422 355.567 166.146 356.107 165.595 356.521C165.043 356.932 164.321 357.137 163.428 357.137C162.822 357.137 162.282 357.027 161.808 356.809C161.334 356.59 160.965 356.289 160.7 355.906C160.436 355.523 160.304 355.111 160.304 354.669H161.917C161.94 355.061 162.088 355.364 162.361 355.578C162.635 355.788 162.997 355.893 163.448 355.893C163.886 355.893 164.218 355.811 164.446 355.646C164.674 355.478 164.788 355.259 164.788 354.99Z" fill="#C6D1FF"/>
<path d="M236.57 353.302V357H234.841V347.047H238.649C239.761 347.047 240.642 347.336 241.294 347.915C241.95 348.494 242.278 349.259 242.278 350.212C242.278 351.187 241.957 351.946 241.315 352.488C240.677 353.031 239.781 353.302 238.628 353.302H236.57ZM236.57 351.914H238.649C239.264 351.914 239.733 351.771 240.057 351.483C240.38 351.192 240.542 350.772 240.542 350.226C240.542 349.688 240.378 349.259 240.05 348.94C239.722 348.617 239.271 348.451 238.696 348.441H236.57V351.914ZM243.229 353.233C243.229 352.509 243.372 351.857 243.659 351.278C243.946 350.695 244.35 350.248 244.869 349.938C245.389 349.624 245.986 349.467 246.66 349.467C247.658 349.467 248.467 349.788 249.087 350.431C249.711 351.073 250.049 351.925 250.099 352.987L250.106 353.377C250.106 354.106 249.964 354.758 249.682 355.332C249.404 355.906 249.003 356.351 248.479 356.665C247.959 356.979 247.358 357.137 246.674 357.137C245.63 357.137 244.794 356.79 244.165 356.098C243.541 355.4 243.229 354.473 243.229 353.315V353.233ZM244.89 353.377C244.89 354.138 245.047 354.735 245.361 355.168C245.676 355.596 246.113 355.811 246.674 355.811C247.235 355.811 247.67 355.592 247.98 355.154C248.294 354.717 248.451 354.076 248.451 353.233C248.451 352.486 248.29 351.894 247.966 351.456C247.647 351.019 247.212 350.8 246.66 350.8C246.118 350.8 245.687 351.016 245.368 351.449C245.049 351.878 244.89 352.52 244.89 353.377ZM255.93 357C255.857 356.859 255.793 356.629 255.738 356.31C255.21 356.861 254.563 357.137 253.797 357.137C253.054 357.137 252.448 356.925 251.979 356.501C251.509 356.077 251.275 355.553 251.275 354.929C251.275 354.14 251.566 353.536 252.15 353.117C252.737 352.693 253.576 352.481 254.665 352.481H255.684V351.996C255.684 351.613 255.577 351.308 255.362 351.08C255.148 350.848 254.822 350.731 254.385 350.731C254.007 350.731 253.697 350.827 253.455 351.019C253.214 351.205 253.093 351.445 253.093 351.736H251.432C251.432 351.331 251.566 350.952 251.835 350.602C252.104 350.246 252.469 349.968 252.929 349.768C253.394 349.567 253.911 349.467 254.481 349.467C255.347 349.467 256.037 349.686 256.552 350.123C257.067 350.556 257.331 351.167 257.345 351.955V355.291C257.345 355.956 257.438 356.487 257.625 356.884V357H255.93ZM254.105 355.804C254.433 355.804 254.74 355.724 255.028 355.564C255.319 355.405 255.538 355.191 255.684 354.922V353.527H254.788C254.173 353.527 253.71 353.634 253.401 353.849C253.091 354.063 252.936 354.366 252.936 354.758C252.936 355.077 253.041 355.332 253.25 355.523C253.464 355.71 253.749 355.804 254.105 355.804ZM262.123 355.811C262.538 355.811 262.882 355.69 263.155 355.448C263.429 355.207 263.575 354.908 263.593 354.553H265.158C265.14 355.013 264.997 355.444 264.728 355.845C264.459 356.241 264.094 356.556 263.634 356.788C263.174 357.021 262.677 357.137 262.144 357.137C261.109 357.137 260.289 356.802 259.683 356.132C259.077 355.462 258.774 354.537 258.774 353.356V353.186C258.774 352.06 259.074 351.16 259.676 350.485C260.278 349.806 261.098 349.467 262.137 349.467C263.016 349.467 263.732 349.724 264.283 350.239C264.839 350.75 265.131 351.422 265.158 352.256H263.593C263.575 351.832 263.429 351.483 263.155 351.21C262.887 350.937 262.542 350.8 262.123 350.8C261.585 350.8 261.171 350.996 260.879 351.388C260.587 351.775 260.439 352.365 260.435 353.158V353.425C260.435 354.227 260.578 354.826 260.865 355.223C261.157 355.615 261.576 355.811 262.123 355.811ZM268.05 350.41C268.592 349.781 269.278 349.467 270.108 349.467C271.684 349.467 272.484 350.367 272.507 352.167V357H270.846V352.229C270.846 351.718 270.734 351.358 270.511 351.148C270.292 350.934 269.969 350.827 269.54 350.827C268.875 350.827 268.378 351.123 268.05 351.716V357H266.389V346.5H268.05V350.41ZM275.959 357H274.298V349.604H275.959V357ZM274.195 347.683C274.195 347.427 274.275 347.215 274.435 347.047C274.599 346.878 274.831 346.794 275.132 346.794C275.433 346.794 275.665 346.878 275.829 347.047C275.993 347.215 276.075 347.427 276.075 347.683C276.075 347.933 275.993 348.143 275.829 348.312C275.665 348.476 275.433 348.558 275.132 348.558C274.831 348.558 274.599 348.476 274.435 348.312C274.275 348.143 274.195 347.933 274.195 347.683ZM279.316 349.604L279.363 350.458C279.91 349.797 280.628 349.467 281.517 349.467C283.057 349.467 283.841 350.349 283.868 352.112V357H282.207V352.208C282.207 351.739 282.105 351.392 281.9 351.169C281.699 350.941 281.369 350.827 280.908 350.827C280.238 350.827 279.739 351.13 279.411 351.736V357H277.75V349.604H279.316ZM285.277 353.247C285.277 352.099 285.545 351.183 286.083 350.499C286.625 349.811 287.343 349.467 288.236 349.467C289.08 349.467 289.743 349.761 290.226 350.349L290.301 349.604H291.798V356.774C291.798 357.745 291.495 358.511 290.889 359.071C290.287 359.632 289.474 359.912 288.448 359.912C287.906 359.912 287.375 359.798 286.856 359.57C286.341 359.347 285.949 359.053 285.68 358.688L286.466 357.69C286.976 358.297 287.605 358.6 288.353 358.6C288.904 358.6 289.339 358.449 289.658 358.148C289.977 357.852 290.137 357.415 290.137 356.836V356.337C289.658 356.87 289.02 357.137 288.223 357.137C287.357 357.137 286.648 356.793 286.097 356.104C285.55 355.416 285.277 354.464 285.277 353.247ZM286.931 353.391C286.931 354.133 287.081 354.719 287.382 355.147C287.687 355.571 288.109 355.783 288.647 355.783C289.317 355.783 289.813 355.496 290.137 354.922V351.668C289.822 351.107 289.33 350.827 288.66 350.827C288.113 350.827 287.687 351.044 287.382 351.477C287.081 351.91 286.931 352.548 286.931 353.391Z" fill="#183ACC"/>
<path d="M362.361 351H360.638V346.577H356.188V351H354.458V341.047H356.188V345.189H360.638V341.047H362.361V351ZM368.732 350.275C368.244 350.85 367.551 351.137 366.654 351.137C365.851 351.137 365.243 350.902 364.828 350.433C364.418 349.963 364.213 349.284 364.213 348.396V343.604H365.874V348.375C365.874 349.314 366.264 349.783 367.043 349.783C367.85 349.783 368.394 349.494 368.677 348.915V343.604H370.338V351H368.773L368.732 350.275ZM373.592 343.604L373.64 344.376C374.159 343.77 374.87 343.467 375.773 343.467C376.762 343.467 377.438 343.845 377.803 344.602C378.341 343.845 379.097 343.467 380.073 343.467C380.888 343.467 381.494 343.692 381.891 344.144C382.292 344.595 382.497 345.26 382.506 346.14V351H380.845V346.188C380.845 345.718 380.742 345.374 380.537 345.155C380.332 344.937 379.993 344.827 379.519 344.827C379.141 344.827 378.831 344.93 378.589 345.135C378.352 345.335 378.186 345.6 378.09 345.928L378.097 351H376.436V346.133C376.413 345.262 375.969 344.827 375.103 344.827C374.437 344.827 373.966 345.098 373.688 345.641V351H372.027V343.604H373.592ZM388.631 351C388.558 350.859 388.494 350.629 388.44 350.31C387.911 350.861 387.264 351.137 386.498 351.137C385.755 351.137 385.149 350.925 384.68 350.501C384.211 350.077 383.976 349.553 383.976 348.929C383.976 348.14 384.267 347.536 384.851 347.117C385.439 346.693 386.277 346.481 387.366 346.481H388.385V345.996C388.385 345.613 388.278 345.308 388.064 345.08C387.85 344.848 387.524 344.731 387.086 344.731C386.708 344.731 386.398 344.827 386.156 345.019C385.915 345.205 385.794 345.445 385.794 345.736H384.133C384.133 345.331 384.267 344.952 384.536 344.602C384.805 344.246 385.17 343.968 385.63 343.768C386.095 343.567 386.612 343.467 387.182 343.467C388.048 343.467 388.738 343.686 389.253 344.123C389.768 344.556 390.032 345.167 390.046 345.955V349.291C390.046 349.956 390.14 350.487 390.326 350.884V351H388.631ZM386.806 349.804C387.134 349.804 387.442 349.724 387.729 349.564C388.02 349.405 388.239 349.191 388.385 348.922V347.527H387.49C386.874 347.527 386.412 347.634 386.102 347.849C385.792 348.063 385.637 348.366 385.637 348.758C385.637 349.077 385.742 349.332 385.951 349.523C386.166 349.71 386.45 349.804 386.806 349.804ZM393.327 343.604L393.375 344.458C393.922 343.797 394.64 343.467 395.529 343.467C397.069 343.467 397.853 344.349 397.88 346.112V351H396.219V346.208C396.219 345.739 396.116 345.392 395.911 345.169C395.711 344.941 395.38 344.827 394.92 344.827C394.25 344.827 393.751 345.13 393.423 345.736V351H391.762V343.604H393.327ZM350.89 358.441H347.786V367H346.071V358.441H342.994V357.047H350.89V358.441ZM355.463 361.121C355.244 361.085 355.019 361.066 354.786 361.066C354.025 361.066 353.513 361.358 353.248 361.941V367H351.587V359.604H353.173L353.214 360.431C353.615 359.788 354.171 359.467 354.882 359.467C355.119 359.467 355.315 359.499 355.47 359.562L355.463 361.121ZM360.727 367C360.654 366.859 360.59 366.629 360.535 366.31C360.007 366.861 359.36 367.137 358.594 367.137C357.851 367.137 357.245 366.925 356.776 366.501C356.306 366.077 356.072 365.553 356.072 364.929C356.072 364.14 356.363 363.536 356.947 363.117C357.534 362.693 358.373 362.481 359.462 362.481H360.481V361.996C360.481 361.613 360.374 361.308 360.159 361.08C359.945 360.848 359.619 360.731 359.182 360.731C358.804 360.731 358.494 360.827 358.252 361.019C358.011 361.205 357.89 361.445 357.89 361.736H356.229C356.229 361.331 356.363 360.952 356.632 360.602C356.901 360.246 357.266 359.968 357.726 359.768C358.191 359.567 358.708 359.467 359.278 359.467C360.143 359.467 360.834 359.686 361.349 360.123C361.864 360.556 362.128 361.167 362.142 361.955V365.291C362.142 365.956 362.235 366.487 362.422 366.884V367H360.727ZM358.902 365.804C359.23 365.804 359.537 365.724 359.824 365.564C360.116 365.405 360.335 365.191 360.481 364.922V363.527H359.585C358.97 363.527 358.507 363.634 358.198 363.849C357.888 364.063 357.733 364.366 357.733 364.758C357.733 365.077 357.837 365.332 358.047 365.523C358.261 365.71 358.546 365.804 358.902 365.804ZM364.466 367V360.834H363.338V359.604H364.466V358.927C364.466 358.106 364.694 357.473 365.15 357.026C365.605 356.58 366.243 356.356 367.064 356.356C367.355 356.356 367.665 356.397 367.993 356.479L367.952 357.778C367.77 357.742 367.558 357.724 367.317 357.724C366.524 357.724 366.127 358.132 366.127 358.947V359.604H368.67V359.098C368.675 358.519 368.798 358.022 369.039 357.607C369.281 357.193 369.623 356.881 370.065 356.671C370.507 356.461 371.038 356.356 371.657 356.356C372.022 356.356 372.371 356.395 372.703 356.473C373.041 356.55 373.389 356.648 373.749 356.767L373.49 358.141C372.87 357.922 372.298 357.812 371.774 357.812C371.268 357.812 370.901 357.924 370.673 358.147C370.445 358.366 370.331 358.697 370.331 359.139V359.604H371.787V360.834H370.331V367H368.67V360.834H366.127V367H364.466ZM374.535 367H372.874V359.604H374.535V367ZM379.416 365.811C379.831 365.811 380.175 365.69 380.448 365.448C380.722 365.207 380.868 364.908 380.886 364.553H382.451C382.433 365.013 382.29 365.444 382.021 365.845C381.752 366.241 381.387 366.556 380.927 366.788C380.467 367.021 379.97 367.137 379.437 367.137C378.402 367.137 377.582 366.802 376.976 366.132C376.37 365.462 376.067 364.537 376.067 363.356V363.186C376.067 362.06 376.367 361.16 376.969 360.485C377.571 359.806 378.391 359.467 379.43 359.467C380.309 359.467 381.025 359.724 381.576 360.239C382.132 360.75 382.424 361.422 382.451 362.256H380.886C380.868 361.832 380.722 361.483 380.448 361.21C380.18 360.937 379.836 360.8 379.416 360.8C378.878 360.8 378.464 360.996 378.172 361.388C377.88 361.775 377.732 362.365 377.728 363.158V363.425C377.728 364.227 377.871 364.826 378.158 365.223C378.45 365.615 378.869 365.811 379.416 365.811ZM386.109 363.828L385.37 364.587V367H383.709V356.5H385.37V362.557L385.89 361.907L387.934 359.604H389.93L387.182 362.687L390.224 367H388.303L386.109 363.828ZM392.787 367H391.126V359.604H392.787V367ZM391.024 357.683C391.024 357.427 391.103 357.215 391.263 357.047C391.427 356.878 391.659 356.794 391.96 356.794C392.261 356.794 392.493 356.878 392.657 357.047C392.822 357.215 392.904 357.427 392.904 357.683C392.904 357.933 392.822 358.143 392.657 358.312C392.493 358.476 392.261 358.558 391.96 358.558C391.659 358.558 391.427 358.476 391.263 358.312C391.103 358.143 391.024 357.933 391.024 357.683ZM396.144 359.604L396.192 360.458C396.739 359.797 397.456 359.467 398.345 359.467C399.885 359.467 400.669 360.349 400.697 362.112V367H399.035V362.208C399.035 361.739 398.933 361.392 398.728 361.169C398.527 360.941 398.197 360.827 397.737 360.827C397.067 360.827 396.568 361.13 396.24 361.736V367H394.578V359.604H396.144ZM402.105 363.247C402.105 362.099 402.374 361.183 402.911 360.499C403.454 359.811 404.171 359.467 405.065 359.467C405.908 359.467 406.571 359.761 407.054 360.349L407.129 359.604H408.626V366.774C408.626 367.745 408.323 368.511 407.717 369.071C407.115 369.632 406.302 369.912 405.277 369.912C404.734 369.912 404.203 369.798 403.684 369.57C403.169 369.347 402.777 369.053 402.508 368.688L403.294 367.69C403.805 368.297 404.434 368.6 405.181 368.6C405.732 368.6 406.168 368.449 406.487 368.148C406.806 367.852 406.965 367.415 406.965 366.836V366.337C406.487 366.87 405.849 367.137 405.051 367.137C404.185 367.137 403.476 366.793 402.925 366.104C402.378 365.416 402.105 364.464 402.105 363.247ZM403.759 363.391C403.759 364.133 403.909 364.719 404.21 365.147C404.516 365.571 404.937 365.783 405.475 365.783C406.145 365.783 406.642 365.496 406.965 364.922V361.668C406.651 361.107 406.158 360.827 405.489 360.827C404.942 360.827 404.516 361.044 404.21 361.477C403.909 361.91 403.759 362.548 403.759 363.391Z" fill="#C6D1FF"/>
<path d="M15 249.929H5.04688V246.518C5.04688 245.392 5.27246 244.535 5.72363 243.947C6.1748 243.359 6.84701 243.065 7.74023 243.065C8.19596 243.065 8.60612 243.188 8.9707 243.435C9.33529 243.681 9.61784 244.041 9.81836 244.515C9.96419 243.977 10.2399 243.562 10.6455 243.271C11.0465 242.974 11.5296 242.826 12.0947 242.826C13.029 242.826 13.7467 243.127 14.248 243.729C14.7493 244.326 15 245.182 15 246.299V249.929ZM10.5088 248.199H13.6191V246.278C13.6191 245.736 13.4847 245.312 13.2158 245.007C12.9469 244.701 12.5732 244.549 12.0947 244.549C11.0602 244.549 10.5316 245.077 10.5088 246.135V248.199ZM9.2373 248.199V246.504C9.2373 245.966 9.11654 245.547 8.875 245.246C8.62891 244.941 8.28255 244.788 7.83594 244.788C7.34375 244.788 6.98828 244.929 6.76953 245.212C6.55078 245.49 6.44141 245.925 6.44141 246.518V248.199H9.2373ZM14.2754 236.776C14.8496 237.264 15.1367 237.957 15.1367 238.854C15.1367 239.657 14.902 240.265 14.4326 240.68C13.9632 241.09 13.2842 241.295 12.3955 241.295H7.60352V239.634H12.375C13.3138 239.634 13.7832 239.244 13.7832 238.465C13.7832 237.658 13.4938 237.114 12.915 236.831H7.60352V235.17H15L15 236.735L14.2754 236.776ZM12.9902 229.332C12.694 229.332 12.4684 229.455 12.3135 229.701C12.1585 229.943 12.0218 230.346 11.9033 230.911C11.7848 231.476 11.6344 231.948 11.4521 232.326C11.0511 233.156 10.4701 233.57 9.70898 233.57C9.07096 233.57 8.53776 233.301 8.10938 232.764C7.68099 232.226 7.4668 231.542 7.4668 230.713C7.4668 229.829 7.68555 229.116 8.12305 228.573C8.56055 228.026 9.12793 227.753 9.8252 227.753V229.414C9.50618 229.414 9.24186 229.533 9.03223 229.77C8.81803 230.007 8.71094 230.321 8.71094 230.713C8.71094 231.077 8.79525 231.376 8.96387 231.608C9.13249 231.836 9.35807 231.95 9.64063 231.95C9.89583 231.95 10.0941 231.843 10.2354 231.629C10.3766 231.415 10.5202 230.982 10.666 230.33C10.8073 229.678 10.9782 229.168 11.1787 228.799C11.3747 228.425 11.6117 228.149 11.8896 227.972C12.1676 227.789 12.5049 227.698 12.9014 227.698C13.5667 227.698 14.1068 227.974 14.5215 228.525C14.9316 229.077 15.1367 229.799 15.1367 230.692C15.1367 231.299 15.0273 231.839 14.8086 232.312C14.5898 232.786 14.2891 233.156 13.9063 233.42C13.5234 233.684 13.111 233.816 12.6689 233.816V232.203C13.0609 232.18 13.3639 232.032 13.5781 231.759C13.7878 231.485 13.8926 231.123 13.8926 230.672C13.8926 230.234 13.8105 229.902 13.6465 229.674C13.4779 229.446 13.2591 229.332 12.9902 229.332ZM15 224.479V226.14H7.60352V224.479H15ZM5.68262 226.242C5.42741 226.242 5.21549 226.162 5.04688 226.003C4.87826 225.839 4.79395 225.606 4.79395 225.306C4.79395 225.005 4.87826 224.772 5.04688 224.608C5.21549 224.444 5.42741 224.362 5.68262 224.362C5.93327 224.362 6.1429 224.444 6.31152 224.608C6.47559 224.772 6.55762 225.005 6.55762 225.306C6.55762 225.606 6.47559 225.839 6.31152 226.003C6.1429 226.162 5.93327 226.242 5.68262 226.242ZM7.60352 221.122L8.45801 221.074C7.7972 220.527 7.4668 219.81 7.4668 218.921C7.4668 217.381 8.34863 216.597 10.1123 216.569H15V218.23H10.208C9.73861 218.23 9.39225 218.333 9.16895 218.538C8.94108 218.739 8.82715 219.069 8.82715 219.529C8.82715 220.199 9.13021 220.698 9.73633 221.026H15V222.688H7.60352V221.122ZM15.1367 211.613C15.1367 212.666 14.8063 213.521 14.1455 214.177C13.4801 214.828 12.596 215.154 11.4932 215.154H11.2881C10.5498 215.154 9.89128 215.013 9.3125 214.73C8.72917 214.443 8.27572 214.042 7.95215 213.527C7.62858 213.012 7.4668 212.438 7.4668 211.805C7.4668 210.798 7.78809 210.021 8.43066 209.474C9.07324 208.922 9.98242 208.646 11.1582 208.646H11.8281V213.479C12.4388 213.429 12.9219 213.227 13.2773 212.871C13.6328 212.511 13.8105 212.06 13.8105 211.518C13.8105 210.757 13.5029 210.137 12.8877 209.658L13.7422 208.763C14.1842 209.059 14.5283 209.455 14.7744 209.952C15.016 210.444 15.1367 210.998 15.1367 211.613ZM8.7998 211.812C8.7998 212.267 8.95931 212.636 9.27832 212.919C9.59733 213.197 10.0417 213.375 10.6113 213.452V210.287H10.4883C9.93229 210.324 9.51302 210.472 9.23047 210.731C8.94336 210.991 8.7998 211.351 8.7998 211.812ZM12.9902 203.205C12.694 203.205 12.4684 203.328 12.3135 203.574C12.1585 203.816 12.0218 204.219 11.9033 204.784C11.7848 205.349 11.6344 205.821 11.4521 206.199C11.0511 207.029 10.4701 207.443 9.70898 207.443C9.07096 207.443 8.53776 207.174 8.10938 206.637C7.68099 206.099 7.4668 205.415 7.4668 204.586C7.4668 203.702 7.68555 202.989 8.12305 202.446C8.56055 201.899 9.12793 201.626 9.8252 201.626V203.287C9.50618 203.287 9.24186 203.406 9.03223 203.643C8.81803 203.88 8.71094 204.194 8.71094 204.586C8.71094 204.951 8.79525 205.249 8.96387 205.481C9.13249 205.709 9.35807 205.823 9.64063 205.823C9.89583 205.823 10.0941 205.716 10.2354 205.502C10.3766 205.288 10.5202 204.855 10.666 204.203C10.8073 203.551 10.9782 203.041 11.1787 202.672C11.3747 202.298 11.6117 202.022 11.8896 201.845C12.1676 201.662 12.5049 201.571 12.9014 201.571C13.5667 201.571 14.1068 201.847 14.5215 202.398C14.9316 202.95 15.1367 203.672 15.1367 204.565C15.1367 205.172 15.0273 205.712 14.8086 206.186C14.5898 206.66 14.2891 207.029 13.9063 207.293C13.5234 207.557 13.111 207.689 12.6689 207.689L12.6689 206.076C13.0609 206.053 13.3639 205.905 13.5781 205.632C13.7878 205.358 13.8926 204.996 13.8926 204.545C13.8926 204.107 13.8105 203.775 13.6465 203.547C13.4779 203.319 13.2591 203.205 12.9902 203.205ZM12.9902 195.973C12.694 195.973 12.4684 196.096 12.3135 196.342C12.1585 196.583 12.0218 196.987 11.9033 197.552C11.7848 198.117 11.6344 198.589 11.4521 198.967C11.0511 199.796 10.4701 200.211 9.70898 200.211C9.07096 200.211 8.53776 199.942 8.10938 199.404C7.68099 198.867 7.4668 198.183 7.4668 197.354C7.4668 196.469 7.68555 195.756 8.12305 195.214C8.56055 194.667 9.12793 194.394 9.8252 194.394V196.055C9.50618 196.055 9.24186 196.173 9.03223 196.41C8.81803 196.647 8.71094 196.962 8.71094 197.354C8.71094 197.718 8.79525 198.017 8.96387 198.249C9.13249 198.477 9.35807 198.591 9.64063 198.591C9.89583 198.591 10.0941 198.484 10.2354 198.27C10.3766 198.055 10.5202 197.622 10.666 196.971C10.8073 196.319 10.9782 195.809 11.1787 195.439C11.3747 195.066 11.6117 194.79 11.8896 194.612C12.1676 194.43 12.5049 194.339 12.9014 194.339C13.5667 194.339 14.1068 194.615 14.5215 195.166C14.9316 195.717 15.1367 196.44 15.1367 197.333C15.1367 197.939 15.0273 198.479 14.8086 198.953C14.5898 199.427 14.2891 199.796 13.9063 200.061C13.5234 200.325 13.111 200.457 12.6689 200.457V198.844C13.0609 198.821 13.3639 198.673 13.5781 198.399C13.7878 198.126 13.8926 197.764 13.8926 197.312C13.8926 196.875 13.8105 196.542 13.6465 196.314C13.4779 196.087 13.2591 195.973 12.9902 195.973ZM12.833 185.732L5.04688 183.203V181.303L15 184.885V186.56L5.04688 190.128V188.234L12.833 185.732ZM15 176.23C14.8587 176.303 14.6286 176.367 14.3096 176.422C14.861 176.951 15.1367 177.598 15.1367 178.363C15.1367 179.106 14.9248 179.712 14.501 180.182C14.0771 180.651 13.5531 180.886 12.9287 180.886C12.1403 180.886 11.5365 180.594 11.1172 180.011C10.6934 179.423 10.4814 178.584 10.4814 177.495V176.477H9.99609C9.61328 176.477 9.30794 176.584 9.08008 176.798C8.84766 177.012 8.73145 177.338 8.73145 177.775C8.73145 178.154 8.82715 178.464 9.01855 178.705C9.2054 178.947 9.44466 179.067 9.73633 179.067V180.729C9.33073 180.729 8.95247 180.594 8.60156 180.325C8.24609 180.056 7.9681 179.692 7.76758 179.231C7.56706 178.767 7.4668 178.249 7.4668 177.68C7.4668 176.814 7.68555 176.123 8.12305 175.608C8.55599 175.093 9.16667 174.829 9.95508 174.815H13.291C13.9564 174.815 14.4873 174.722 14.8838 174.535H15V176.23ZM13.8037 178.056C13.8037 177.728 13.724 177.42 13.5645 177.133C13.4049 176.841 13.1908 176.622 12.9219 176.477H11.5273V177.372C11.5273 177.987 11.6344 178.45 11.8486 178.76C12.0628 179.07 12.3659 179.225 12.7578 179.225C13.0768 179.225 13.332 179.12 13.5234 178.91C13.7103 178.696 13.8037 178.411 13.8037 178.056ZM15 171.309V172.97H4.5V171.309H15ZM14.2754 165.013C14.8496 165.5 15.1367 166.193 15.1367 167.091C15.1367 167.893 14.902 168.501 14.4326 168.916C13.9632 169.326 13.2842 169.531 12.3955 169.531H7.60352V167.87H12.375C13.3138 167.87 13.7832 167.48 13.7832 166.701C13.7832 165.895 13.4938 165.35 12.915 165.067H7.60352V163.406H15V164.972L14.2754 165.013ZM15.1367 158.457C15.1367 159.51 14.8063 160.364 14.1455 161.021C13.4801 161.672 12.596 161.998 11.4932 161.998H11.2881C10.5498 161.998 9.89128 161.857 9.3125 161.574C8.72917 161.287 8.27572 160.886 7.95215 160.371C7.62858 159.856 7.4668 159.282 7.4668 158.648C7.4668 157.641 7.78809 156.864 8.43066 156.317C9.07324 155.766 9.98242 155.49 11.1582 155.49H11.8281V160.323C12.4388 160.273 12.9219 160.07 13.2773 159.715C13.6328 159.355 13.8105 158.904 13.8105 158.361C13.8105 157.6 13.5029 156.98 12.8877 156.502L13.7422 155.606C14.1842 155.903 14.5283 156.299 14.7744 156.796C15.016 157.288 15.1367 157.842 15.1367 158.457ZM8.7998 158.655C8.7998 159.111 8.95931 159.48 9.27832 159.763C9.59733 160.041 10.0417 160.218 10.6113 160.296V157.131H10.4883C9.93229 157.167 9.51302 157.315 9.23047 157.575C8.94336 157.835 8.7998 158.195 8.7998 158.655ZM10.9531 150.685C9.90039 150.685 8.90234 150.543 7.95898 150.261C7.01107 149.978 6.16569 149.563 5.42285 149.017C4.67546 148.47 4.15137 147.891 3.85059 147.28L4.82129 146.952C5.30892 147.595 6.05404 148.117 7.05664 148.518C8.05469 148.914 9.19857 149.131 10.4883 149.167L11.0762 149.174C12.457 149.174 13.6898 148.98 14.7744 148.593C15.8545 148.201 16.6771 147.654 17.2422 146.952L18.165 147.28C17.8643 147.891 17.3379 148.472 16.5859 149.023C15.8385 149.57 14.9954 149.985 14.0566 150.268C13.1133 150.546 12.0788 150.685 10.9531 150.685ZM11.377 139.337C12.5254 139.337 13.4391 139.594 14.1182 140.109C14.7972 140.62 15.1367 141.324 15.1367 142.222C15.1367 143.088 14.8245 143.762 14.2002 144.245L15 144.327V145.831H4.5V144.17H8.31445C7.74935 143.691 7.4668 143.047 7.4668 142.235C7.4668 141.333 7.80176 140.624 8.47168 140.109C9.1416 139.594 10.0781 139.337 11.2813 139.337H11.377ZM11.2334 140.998C10.4313 140.998 9.82975 141.139 9.42871 141.422C9.02767 141.704 8.82715 142.115 8.82715 142.652C8.82715 143.372 9.1416 143.878 9.77051 144.17H12.8193C13.4619 143.874 13.7832 143.363 13.7832 142.639C13.7832 142.119 13.5895 141.718 13.2021 141.436C12.8148 141.153 12.2292 141.007 11.4453 140.998H11.2334ZM15 136.172V137.833H7.60352V136.172H15ZM5.68262 137.936C5.42741 137.936 5.21549 137.856 5.04688 137.696C4.87826 137.532 4.79395 137.3 4.79395 136.999C4.79395 136.698 4.87826 136.466 5.04688 136.302C5.21549 136.138 5.42741 136.056 5.68262 136.056C5.93327 136.056 6.1429 136.138 6.31152 136.302C6.47559 136.466 6.55762 136.698 6.55762 136.999C6.55762 137.3 6.47559 137.532 6.31152 137.696C6.1429 137.856 5.93327 137.936 5.68262 137.936ZM15 132.59V134.251H4.5V132.59H15ZM15 129.008V130.669H4.5V129.008H15ZM15 125.426V127.087H7.60352V125.426H15ZM5.68262 127.189C5.42741 127.189 5.21549 127.11 5.04688 126.95C4.87826 126.786 4.79395 126.554 4.79395 126.253C4.79395 125.952 4.87826 125.72 5.04688 125.556C5.21549 125.392 5.42741 125.31 5.68262 125.31C5.93327 125.31 6.1429 125.392 6.31152 125.556C6.47559 125.72 6.55762 125.952 6.55762 126.253C6.55762 126.554 6.47559 126.786 6.31152 126.95C6.1429 127.11 5.93327 127.189 5.68262 127.189ZM11.2334 123.922C10.5088 123.922 9.8571 123.778 9.27832 123.491C8.69499 123.204 8.24837 122.801 7.93848 122.281C7.62402 121.762 7.4668 121.165 7.4668 120.49C7.4668 119.492 7.78809 118.683 8.43066 118.063C9.07324 117.439 9.92546 117.102 10.9873 117.052L11.377 117.045C12.1061 117.045 12.7578 117.186 13.332 117.469C13.9063 117.747 14.3506 118.148 14.665 118.672C14.9795 119.191 15.1367 119.793 15.1367 120.477C15.1367 121.52 14.7904 122.356 14.0977 122.985C13.4004 123.61 12.473 123.922 11.3154 123.922H11.2334ZM11.377 122.261C12.138 122.261 12.735 122.104 13.168 121.789C13.5964 121.475 13.8105 121.037 13.8105 120.477C13.8105 119.916 13.5918 119.481 13.1543 119.171C12.7168 118.856 12.0765 118.699 11.2334 118.699C10.486 118.699 9.89355 118.861 9.45605 119.185C9.01855 119.504 8.7998 119.939 8.7998 120.49C8.7998 121.033 9.01628 121.463 9.44922 121.782C9.8776 122.101 10.5202 122.261 11.377 122.261ZM7.60352 114.099L8.45801 114.051C7.7972 113.504 7.4668 112.786 7.4668 111.897C7.4668 110.357 8.34863 109.573 10.1123 109.546H15V111.207H10.208C9.73861 111.207 9.39225 111.31 9.16895 111.515C8.94108 111.715 8.82715 112.046 8.82715 112.506C8.82715 113.176 9.13021 113.675 9.73633 114.003H15V115.664H7.60352V114.099ZM11.0625 104.645C12.0742 104.645 13.0518 104.784 13.9951 105.062C14.9339 105.34 15.7884 105.761 16.5586 106.326C17.3333 106.891 17.8688 107.481 18.165 108.097L17.2422 108.425C16.7135 107.741 15.9069 107.201 14.8223 106.805C13.7331 106.404 12.4912 106.203 11.0967 106.203H10.9395C9.67253 106.203 8.51953 106.376 7.48047 106.723C6.43685 107.069 5.60059 107.566 4.97168 108.213L4.78027 108.425L3.85059 108.097C4.13314 107.513 4.63444 106.948 5.35449 106.401C6.07454 105.854 6.88118 105.435 7.77441 105.144C8.66309 104.852 9.58138 104.688 10.5293 104.651L11.0625 104.645Z" fill="#183ACC"/>
</svg>
